<?xml version="1.0" encoding="iso-8859-1"?>
<!-- Generator: Adobe Illustrator 19.0.0, SVG Export Plug-In . SVG Version: 6.00 Build 0)  -->
<svg version="1.1" id="Capa_1" xmlns="http://www.w3.org/2000/svg" xmlns:xlink="http://www.w3.org/1999/xlink" x="0px" y="0px"
	 viewBox="0 0 512 512" style="enable-background:new 0 0 512 512;" xml:space="preserve">
<g>
	<g>
		<path d="M310.468,495.66H201.531c-4.512,0-8.17,3.657-8.17,8.17s3.658,8.17,8.17,8.17h108.936c4.512,0,8.17-3.657,8.17-8.17
			S314.98,495.66,310.468,495.66z"/>
	</g>
</g>
<g>
	<g>
		<path d="M413.957,163.404h-51.745V24.511C362.212,10.996,351.217,0,337.702,0c-13.516,0-24.511,10.996-24.511,24.511v138.894
			H198.808V24.511C198.808,10.996,187.813,0,174.297,0c-13.516,0-24.511,10.996-24.511,24.511v138.894H98.042
			c-4.512,0-8.17,3.657-8.17,8.17v103.489c0,10.387,4.06,25.576,9.243,34.577l95.335,165.584c1.458,2.533,4.158,4.094,7.081,4.094
			h108.936c2.923,0,5.622-1.561,7.081-4.094l95.337-165.584c5.183-9.002,9.243-24.19,9.243-34.577V171.574
			C422.127,167.061,418.469,163.404,413.957,163.404z M329.531,24.511c0-4.506,3.665-8.17,8.17-8.17c4.506,0,8.17,3.665,8.17,8.17
			v57.191h-16.34V24.511z M329.531,98.043h16.34v65.362h-16.34V98.043z M166.127,24.511c0-4.506,3.665-8.17,8.17-8.17
			c4.506,0,8.17,3.665,8.17,8.17v57.191h-16.34V24.511z M166.127,98.043h16.34v65.362h-16.34V98.043z M405.787,275.064
			c0,7.542-3.301,19.89-7.063,26.425l-92.979,161.49h-99.489l-92.979-161.49c-3.763-6.535-7.063-18.883-7.063-26.425v-95.319
			h299.574V275.064z"/>
	</g>
</g>
<g>
	<g>
		<path d="M381.276,223.319H130.723c-4.512,0-8.17,3.657-8.17,8.17s3.658,8.17,8.17,8.17h250.553c4.512,0,8.17-3.657,8.17-8.17
			S385.788,223.319,381.276,223.319z"/>
	</g>
</g>
<g>
</g>
<g>
</g>
<g>
</g>
<g>
</g>
<g>
</g>
<g>
</g>
<g>
</g>
<g>
</g>
<g>
</g>
<g>
</g>
<g>
</g>
<g>
</g>
<g>
</g>
<g>
</g>
<g>
</g>
</svg>
